<?xml version="1.0" encoding="UTF-8" standalone="no"?>
<!-- Created with Inkscape (http://www.inkscape.org/) -->

<svg
   version="1.1"
   id="svg1"
   width="323.51999"
   height="204.48"
   viewBox="0 0 323.51999 204.48"
   xmlns="http://www.w3.org/2000/svg"
   xmlns:svg="http://www.w3.org/2000/svg">
  <defs
     id="defs1" />
  <g
     id="g1">
    <path
       style="fill:#800000"
       d="m 126.9813,153.77271 c 0,-0.15717 0.216,-0.36865 0.48,-0.46996 0.37764,-0.14491 0.48,-0.80051 0.48,-3.07424 0,-2.35559 -0.0888,-2.89004 -0.48,-2.89004 -0.264,0 -0.48,-0.144 -0.48,-0.32 0,-0.18029 0.87322,-0.31556 2,-0.30982 1.73184,0.009 1.92492,0.0672 1.44,0.43527 -0.78807,0.59824 -0.84336,6.27455 -0.0611,6.27455 0.27439,0 0.40989,0.144 0.30111,0.32 -0.245,0.39643 -3.68,0.42839 -3.68,0.0342 z m 4.27482,-0.19661 c -0.11292,-0.29426 0.0182,-0.74774 0.29661,-1.0262 0.67973,-0.67973 1.58126,-0.29008 1.45102,0.62714 -0.1262,0.88875 -1.44423,1.18971 -1.74763,0.39906 z m 2.30767,0.19875 c -0.0964,-0.15599 0.11109,-0.35851 0.46111,-0.45004 0.57203,-0.14959 0.6364,-0.44066 0.6364,-2.87735 0,-2.44919 -0.0695,-2.75942 -0.72,-3.21317 -0.675,-0.47086 -0.51501,-0.5033 2.56,-0.51904 l 3.28,-0.0168 v 1.12 c 0,0.616 -0.144,1.12 -0.32,1.12 -0.176,0 -0.32,-0.13371 -0.32,-0.29714 0,-0.56555 -1.00894,-1.30286 -1.78285,-1.30286 -0.69598,0 -0.77715,0.13647 -0.77715,1.30667 0,1.3956 0.70794,1.66886 0.90226,0.34826 0.21455,-1.45804 0.69774,-0.60966 0.69774,1.22507 0,1.06667 -0.14222,1.92 -0.32,1.92 -0.176,0 -0.32,-0.19837 -0.32,-0.44082 0,-0.24245 -0.216,-0.62008 -0.48,-0.83918 -0.41365,-0.3433 -0.48,-0.21336 -0.48,0.94013 v 1.3385 l 1.2,-0.0993 c 0.88202,-0.073 1.28371,-0.29011 1.51589,-0.81932 0.61421,-1.4 1.0571,-0.57661 0.60242,1.12 -0.1826,0.68139 -0.35294,0.72 -3.17674,0.72 -1.64109,0 -3.06267,-0.12763 -3.15908,-0.28362 z m 7.29323,-0.19638 c -0.2535,-0.66061 0.0902,-1.44 0.63506,-1.44 0.24797,0 0.63012,0.216 0.84922,0.48 0.31782,0.38295 0.31782,0.57705 0,0.96 -0.2191,0.264 -0.60125,0.48 -0.84922,0.48 -0.24797,0 -0.53375,-0.216 -0.63506,-0.48 z m 3.56428,0.16 c -0.10877,-0.176 0.0267,-0.32 0.30112,-0.32 0.41684,0 0.49888,-0.49997 0.49888,-3.04 0,-3.35331 -0.3313,-3.81111 -1.56317,-2.16 l -0.65655,0.88 -0.0101,-1.2112 -0.0101,-1.21119 3.27625,0.0912 c 2.86473,0.0797 3.29017,0.16389 3.38707,0.66989 0.0609,0.31828 0.0193,0.81716 -0.0925,1.10861 -0.17047,0.44425 -0.26668,0.40242 -0.59507,-0.25869 -0.21545,-0.43374 -0.71212,-0.83463 -1.10372,-0.89087 -0.68815,-0.0988 -0.71199,-0.0112 -0.71199,2.61715 0,1.99057 0.12865,2.84804 0.48,3.1994 0.264,0.264 0.48,0.56228 0.48,0.66285 0,0.32382 -3.47515,0.19431 -3.68,-0.13714 z m 4.75572,-0.16 c -0.2535,-0.66061 0.0902,-1.44 0.63506,-1.44 0.24797,0 0.63012,0.216 0.84922,0.48 0.31782,0.38295 0.31782,0.57705 0,0.96 -0.2191,0.264 -0.60125,0.48 -0.84922,0.48 -0.24797,0 -0.53375,-0.216 -0.63506,-0.48 z m 4.68428,0.16 c 0,-0.176 0.216,-0.32 0.48,-0.32 0.39299,0 0.48,-0.55111 0.48,-3.04 0,-2.48889 -0.087,-3.04 -0.48,-3.04 -0.264,0 -0.48,-0.144 -0.48,-0.32 0,-0.18051 0.90667,-0.32 2.08,-0.32 2.00513,0 2.76445,0.38637 1.44,0.73272 -0.57736,0.15098 -0.64,0.43648 -0.64,2.91732 v 2.74996 h 1.12471 c 0.91333,0 1.23746,-0.18541 1.72468,-0.98659 0.70753,-1.16343 0.95905,-0.91339 0.75099,0.74659 l -0.1504,1.2 h -3.16499 c -1.89666,0 -3.16499,-0.12824 -3.16499,-0.32 z m 8.20316,-0.34323 c -0.78469,-0.61723 -0.84316,-0.83981 -0.84316,-3.21004 0,-1.96864 -0.10897,-2.58863 -0.48,-2.73101 -1.02007,-0.39144 -0.40307,-0.75572 1.28,-0.75572 0.968,0 1.76,0.144 1.76,0.32 0,0.176 -0.1496,0.32 -0.33245,0.32 -0.21143,0 -0.2988,1.00635 -0.24,2.76421 0.0828,2.47415 0.16315,2.79027 0.76619,3.01257 0.39265,0.14475 0.99342,0.0894 1.44,-0.13264 0.7022,-0.34915 0.77403,-0.60102 0.85921,-3.01257 0.0589,-1.66879 -0.0289,-2.63157 -0.24,-2.63157 -0.18312,0 -0.33295,-0.144 -0.33295,-0.32 0,-0.176 0.504,-0.32 1.12,-0.32 1.14407,0 1.50347,0.42438 0.64,0.75572 -0.37103,0.14238 -0.48,0.76237 -0.48,2.73101 0,2.37023 -0.0585,2.59281 -0.84315,3.21004 -0.51074,0.40175 -1.31376,0.66323 -2.03685,0.66323 -0.72308,0 -1.5261,-0.26148 -2.03684,-0.66323 z m 8.04087,0.16231 c -1.76923,-0.95998 -2.33118,-3.33621 -1.21995,-5.15866 0.86846,-1.42431 1.62391,-1.73391 4.01544,-1.64561 l 2.08048,0.0768 v 1.21418 c 0,0.66781 -0.144,1.21419 -0.32,1.21419 -0.176,0 -0.32,-0.19368 -0.32,-0.4304 0,-0.67991 -1.09096,-1.4896 -2.00705,-1.4896 -1.19211,0 -1.83295,1.08774 -1.83295,3.1112 0,2.74954 1.74684,3.76434 3.60197,2.0925 0.90967,-0.8198 1.02238,-0.19896 0.12652,0.69691 -0.95153,0.95153 -2.70781,1.08714 -4.12446,0.31847 z m 5.19597,0.165 c 0,-0.16724 0.144,-0.30408 0.32,-0.30408 0.19088,0 0.32,-1.22667 0.32,-3.04 0,-1.81333 -0.12912,-3.04 -0.32,-3.04 -0.176,0 -0.32,-0.144 -0.32,-0.32 0,-0.176 0.792,-0.32 1.76,-0.32 1.8385,0 2.09891,0.16163 1.25482,0.77885 -0.3332,0.24364 -0.46938,0.73907 -0.4,1.45525 l 0.10518,1.08584 0.94164,-1.23942 c 0.60262,-0.79321 0.80423,-1.28523 0.56,-1.36664 -0.89085,-0.29695 -0.27273,-0.71388 1.05836,-0.71388 0.792,0 1.44,0.144 1.44,0.32 0,0.176 -0.18906,0.32 -0.42013,0.32 -0.45975,0 -2.13987,1.62676 -2.13987,2.07192 0,0.15229 0.54,1.11515 1.2,2.13969 0.87562,1.35925 1.39463,1.86355 1.92,1.86559 0.69153,0.003 0.72,-0.10693 0.72,-2.772 0,-2.13292 -0.12251,-2.91018 -0.52959,-3.36 -0.50484,-0.55784 -0.46862,-0.5852 0.77453,-0.5852 1.20389,0 1.45365,0.16567 3.24959,2.15556 l 1.94547,2.15556 v -1.68561 c 0,-1.20311 -0.13739,-1.73832 -0.48,-1.86979 -0.93246,-0.35782 -0.46295,-0.75559 0.88,-0.74554 1.19947,0.009 1.2939,0.0603 0.8,0.43527 -0.46856,0.3557 -0.56,0.95489 -0.56,3.66983 0,1.78459 -0.108,3.2443 -0.24,3.24378 -0.132,-5.1e-4 -1.30438,-1.22451 -2.60529,-2.72 -1.30092,-1.49548 -2.41692,-2.71906 -2.48,-2.71906 -0.0631,0 -0.11471,1.02148 -0.11471,2.26996 0,1.99656 0.0767,2.29 0.6364,2.43638 0.35002,0.0915 0.55846,0.29255 0.46318,0.4467 -0.23796,0.38503 -9.73958,0.33727 -9.73958,-0.049 z m 4.16,-0.48106 c 0,-0.0973 -0.36,-0.70676 -0.8,-1.35428 l -0.8,-1.17731 v 1.14095 c 0,0.62753 0.096,1.23695 0.21334,1.35429 0.25696,0.25696 1.38666,0.28658 1.38666,0.0363 z m 12.72181,0.25545 c -2.03124,-1.25944 -2.30693,-4.14258 -0.56289,-5.88662 0.78025,-0.78025 1.16453,-0.91185 2.66263,-0.91185 1.49034,0 1.8986,0.1381 2.74461,0.92839 0.96319,0.89975 1.1439,1.53353 1.01266,3.55161 -0.0291,0.44787 -0.53563,1.25777 -1.15072,1.84 -0.89155,0.84391 -1.356,1.03839 -2.4634,1.03148 -0.75058,-0.005 -1.75988,-0.25354 -2.24289,-0.55301 z m 3.09485,-0.58085 c 0.68347,-0.68346 0.93596,-1.84627 0.73165,-3.3695 -0.20835,-1.55338 -0.70927,-2.20812 -1.68934,-2.20812 -1.02424,0 -1.73897,1.15586 -1.73897,2.81224 0,2.60229 1.41189,4.05016 2.69666,2.76538 z m 4.49511,-1.97762 c -0.65689,-1.716 -1.31977,-3.2568 -1.47306,-3.424 -0.55644,-0.60694 -0.25015,-0.816 1.19553,-0.816 1.24823,0 1.44266,0.0823 1.26827,0.53675 -0.20313,0.52935 0.72809,3.62325 1.09055,3.62325 0.10265,0 0.35396,-0.44331 0.55848,-0.98513 0.37715,-0.99919 0.0119,-2.53487 -0.6029,-2.53487 -0.14775,0 -0.26864,-0.144 -0.26864,-0.32 0,-0.17841 0.81412,-0.31167 1.84,-0.30118 1.42149,0.0145 1.72476,0.0975 1.33335,0.36471 -0.45788,0.3126 -0.44443,0.51479 0.13984,2.10084 l 0.64647,1.75496 0.64519,-1.69799 c 0.47035,-1.23786 0.54085,-1.73277 0.26017,-1.82633 -0.7474,-0.24914 -0.37276,-0.71501 0.57498,-0.71501 0.97829,0 1.19766,0.27127 0.65988,0.816 -0.16507,0.1672 -0.79285,1.672 -1.39507,3.344 -0.60222,1.672 -1.22316,3.01864 -1.37988,2.99253 -0.15671,-0.0261 -0.54644,-0.74611 -0.86606,-1.6 -0.31962,-0.85389 -0.695,-1.66871 -0.83418,-1.81071 -0.13918,-0.14201 -0.57923,0.61399 -0.97789,1.68 -0.39866,1.066 -0.83639,1.93818 -0.97275,1.93818 -0.13636,0 -0.78538,-1.404 -1.44228,-3.12 z m -36.95177,-8.25731 c -19.33591,-4.15003 -31.83012,-30.85626 -27.16399,-58.062694 2.55308,-14.886056 10.77276,-27.804647 20.92399,-32.885535 6.41988,-3.213275 13.53671,-3.458765 20.08563,-0.692841 10.59772,4.47593 19.13452,16.739725 22.14871,31.818376 1.31,6.55338 1.668,15.887817 0.83454,21.759994 -1.62951,11.48088 -5.66646,21.08792 -11.90915,28.34118 -6.73274,7.82264 -16.32746,11.56567 -24.91973,9.72152 z m 8.24479,-3.16687 c 3.23536,-0.68058 5.5155,-1.61882 8.14154,-3.35013 8.73149,-5.75653 14.95637,-17.10206 17.05709,-31.08846 0.66117,-4.402 0.66265,-13.448854 0.003,-17.897394 -2.27412,-15.33458 -9.56928,-27.498446 -19.52851,-32.561591 -11.8575,-6.028203 -25.3894,0.310054 -32.94869,15.432958 -6.40589,12.815453 -7.65797,29.2003 -3.34168,43.729507 5.20123,17.508 18.11738,28.36455 30.61732,25.73511 z m -6.96479,-14.60111 c -3.20859,-0.37661 -7.31912,-1.6684 -10.18368,-3.20036 -7.09039,-3.79192 -11.89233,-9.73981 -14.33793,-17.75961 -0.78717,-2.58133 -0.87055,-3.32981 -0.87055,-7.814744 0,-4.48494 0.0834,-5.23342 0.87055,-7.81475 2.44594,-8.02088 7.25361,-13.97518 14.33793,-17.7575 12.17669,-6.501141 27.5228,-3.280073 36.16082,7.58997 2.26582,2.85129 4.45174,7.24958 5.43823,10.94228 1.03468,3.87309 1.03468,10.206907 0,14.079994 -0.9213,3.44867 -3.06091,7.87741 -5.11012,10.57736 -6.02249,7.93496 -16.36939,12.3236 -26.30525,11.15736 z m 9.0414,-1.40384 c 8.41049,-1.78228 15.75479,-7.58496 19.45448,-15.37087 3.99645,-8.410467 3.63459,-17.733544 -1.00839,-25.980114 -1.86174,-3.3067 -6.60556,-8.1374 -9.80857,-9.98819 -4.68746,-2.708558 -9.03762,-3.874889 -14.41984,-3.866142 -5.65203,0.0092 -10.57576,1.461055 -15.15915,4.470012 -5.69537,3.73895 -9.59008,9.05036 -11.66603,15.90952 -0.75399,2.49129 -0.85193,3.34836 -0.85193,7.45491 0,4.106554 0.0979,4.963614 0.85193,7.454904 2.27657,7.52205 6.53846,12.96908 13.18734,16.85446 2.22423,1.29977 5.88338,2.67294 8.47967,3.18218 2.29009,0.44918 8.5787,0.37981 10.94049,-0.12067 z m -7.7614,-2.39198 c 0,-1.45279 0.59041,-2.56767 0.8876,-1.6761 0.0755,0.2264 0.43328,0.29883 0.89889,0.18197 0.82266,-0.20648 1.01311,0.14765 0.40594,0.75481 -0.27675,0.27676 -0.23723,0.56649 0.16,1.17274 0.29017,0.44285 0.52757,0.88224 0.52757,0.97643 0,0.40826 -1.08709,0.12166 -1.47454,-0.38874 -0.40486,-0.53333 -0.42559,-0.53333 -0.43528,0 -0.006,0.308 -0.22618,0.56 -0.49018,0.56 -0.3619,0 -0.48,-0.38901 -0.48,-1.58111 z m 3.52,0.0344 c 0,-1.83694 0.22545,-2.15809 1.01403,-1.44443 0.54497,0.49319 0.58597,0.49324 0.58597,7e-4 0,-0.61739 0.60161,-0.71669 0.78511,-0.1296 0.0688,0.22 0.21477,0.94 0.32446,1.6 0.17038,1.02519 0.11341,1.2 -0.39107,1.2 -0.32477,0 -0.7633,-0.1728 -0.9745,-0.384 -0.29866,-0.29867 -0.384,-0.26311 -0.384,0.16 0,0.2992 -0.216,0.544 -0.48,0.544 -0.36046,0 -0.48,-0.38519 -0.48,-1.54667 z m -6.48,0.88104 c -1.10843,-0.64561 -0.40741,-3.17437 0.88,-3.17437 0.69931,0 1.53418,0.99382 1.15414,1.37387 -0.22268,0.22268 -0.46835,0.20971 -0.77002,-0.0407 -0.52182,-0.43307 -0.86412,-0.17951 -0.86412,0.64012 0,0.66435 0.51054,0.7943 0.73334,0.18667 0.1147,-0.31284 0.2361,-0.31579 0.5571,-0.0136 0.33353,0.31403 0.33369,0.47892 8.2e-4,0.88 -0.47247,0.56929 -0.90315,0.60696 -1.69126,0.14793 z m 10.39776,-0.34462 c -0.55515,-0.55514 -0.49716,-2.34889 0.0917,-2.83761 1.14747,-0.95232 2.99457,1.21213 2.16537,2.53739 -0.40407,0.6458 -1.73455,0.82277 -2.25709,0.30022 z m 1.4645,-1.28468 c -0.15075,-1.02448 -0.90226,-1.13421 -0.90226,-0.13174 0,0.53777 0.17553,0.82667 0.50226,0.82667 0.33355,0 0.46791,-0.23343 0.4,-0.69493 z m -15.54226,0.803 c -0.79461,-0.32064 -0.0848,-3.30807 0.786,-3.30807 0.47442,0 0.44374,0.63626 -0.0989,2.05027 -0.10758,0.28035 -0.0557,0.50973 0.11521,0.50973 0.17095,0 0.51036,-0.50255 0.75424,-1.11677 0.31426,-0.79146 0.56505,-1.03915 0.86095,-0.85028 0.33807,0.21577 0.31623,0.51965 -0.11474,1.59677 -0.52518,1.31253 -1.11348,1.59825 -2.30279,1.11835 z m 17.3657,-1.37905 c -0.84545,-1.33928 -0.83172,-2.29456 0.0228,-1.58538 0.3549,0.29455 0.45151,0.27096 0.45151,-0.11022 0,-0.64242 0.78331,-0.92034 1.26387,-0.44841 0.29298,0.28772 0.35791,0.26328 0.27899,-0.10501 -0.22771,-1.06266 0.82258,-0.39381 1.23013,0.78338 0.38348,1.10763 0.37535,1.3246 -0.0659,1.76 -0.45529,0.44923 -0.53817,0.43555 -0.86858,-0.14338 -0.35394,-0.62014 -0.37103,-0.61592 -0.55071,0.13628 -0.29281,1.22574 -0.86596,1.13231 -1.76209,-0.28726 z m -20.2457,0.24042 c -0.396,-0.19098 -0.72,-0.48563 -0.72,-0.65477 0,-0.43561 1.35533,-2.79467 1.6056,-2.79467 0.53047,0 0.5669,0.48231 0.10405,1.37738 -0.46162,0.89266 -0.46053,1.00863 0.0128,1.3547 1.16737,0.8536 0.40755,1.39736 -1.00241,0.71736 z m 5.42897,-2.17541 c -3.75219,-0.98307 -6.58306,-2.66773 -9.66897,-5.75405 -4.75177,-4.7524 -6.42455,-8.54849 -6.65283,-15.097444 -0.1734,-4.9744 0.36981,-7.77166 2.24376,-11.55434 1.05753,-2.13469 1.87914,-3.19991 4.37554,-5.67286 4.47482,-4.43278 8.35368,-6.22331 14.33239,-6.61604 8.60562,-0.56528 16.44685,3.35228 20.9788,10.48122 3.96885,6.24315 4.54035,15.047717 1.41926,21.865074 -0.80389,1.75592 -0.80555,1.77551 -0.11211,1.32115 0.79094,-0.51825 1.95105,-0.13742 2.56176,0.84094 0.41768,0.66913 -0.50135,2.19232 -1.32274,2.19232 -0.88971,0 -1.98288,-0.93097 -1.994,-1.69814 -0.0101,-0.69584 -0.0144,-0.69637 -0.50345,-0.0619 -0.2713,0.352 -0.64347,0.91384 -0.82705,1.24852 -0.27835,0.50747 -0.24404,0.57409 0.20663,0.40115 0.67991,-0.26091 1.65291,0.24607 2.10945,1.09912 0.42858,0.8008 -0.35848,2.21721 -1.22278,2.20056 -0.8592,-0.0165 -1.99259,-1.13155 -1.99299,-1.96064 -3.5e-4,-0.73543 -0.0165,-0.73168 -0.90977,0.21129 l -0.9094,0.96 0.97193,0.72 c 0.53457,0.396 1.24397,0.72 1.57644,0.72 0.82538,0 0.51793,0.77399 -0.35865,0.90288 -0.38482,0.0566 -0.61315,0.24289 -0.50738,0.41402 0.24509,0.39657 -0.48168,1.29393 -0.85907,1.06069 -0.15605,-0.0965 -0.28374,-0.53577 -0.28374,-0.97628 0,-0.44051 -0.24702,-1.1284 -0.54893,-1.52865 l -0.54893,-0.72774 -1.67267,1.36242 c -2.06405,1.68118 -5.10895,3.16108 -7.81769,3.79957 -2.97107,0.70032 -9.10292,0.62261 -12.06281,-0.15288 z m 11.75059,-0.83344 c 7.19085,-1.77821 13.17467,-7.53399 15.42858,-14.8406 0.95268,-3.088347 1.02536,-8.949394 0.15047,-12.134404 -1.98153,-7.21367 -8.03585,-13.26888 -15.26631,-15.26855 -1.48739,-0.41135 -3.15333,-0.56184 -6.0523,-0.54671 -3.42978,0.0179 -4.37472,0.14272 -6.62864,0.87561 -5.1554,1.67633 -10.13115,5.95543 -12.55417,10.79647 -1.80689,3.61006 -2.3809,6.55315 -2.16927,11.12236 0.29072,6.276744 1.81549,9.661024 6.44762,14.310684 3.15829,3.17025 5.89377,4.78445 9.64573,5.69197 2.65301,0.6417 8.3901,0.63814 10.99829,-0.007 z m -9.51556,-0.50459 c -0.55221,-0.55221 -0.47278,-1.14587 0.176,-1.31542 0.44364,-0.11593 0.41815,-0.15405 -0.12267,-0.18346 -0.43272,-0.0235 -0.74396,0.19721 -0.85005,0.60288 -0.0921,0.352 -0.32758,0.64 -0.52341,0.64 -0.22535,0 -0.27795,-0.3112 -0.14329,-0.84773 0.14973,-0.5966 0.10414,-0.7806 -0.15391,-0.62111 -0.20166,0.12463 -0.36667,0.43411 -0.36667,0.68773 0,0.25361 -0.144,0.46111 -0.32,0.46111 -0.176,0 -0.32,-0.216 -0.32,-0.48 0,-0.27188 -0.28684,-0.48 -0.66156,-0.48 -0.53831,0 -0.62033,-0.13414 -0.44025,-0.72 0.12173,-0.396 0.24068,-0.74524 0.26433,-0.7761 0.0635,-0.0828 4.81497,1.2275 4.96886,1.37028 0.0722,0.067 -0.13007,0.41078 -0.4496,0.76386 -0.35993,0.39771 -0.43316,0.64196 -0.19249,0.64196 0.21367,0 0.29949,0.144 0.19071,0.32 -0.26185,0.42369 -0.58808,0.40392 -1.056,-0.064 z m 4.736,-0.416 c 0,-0.44 -0.14522,-0.8 -0.32271,-0.8 -0.19129,0 -0.15994,-0.26063 0.077,-0.64 0.4316,-0.6911 2.34085,-0.91466 2.54635,-0.29816 0.19131,0.57394 4.41732,-0.62899 4.42911,-1.26074 0.0147,-0.78671 0.49115,0.16773 0.73826,1.4789 0.21479,1.1396 -0.36871,1.49579 -0.65527,0.4 -0.0921,-0.352 -0.29731,-0.64 -0.45614,-0.64 -0.15882,0 -0.19414,0.37702 -0.0785,0.83783 0.20462,0.81528 0.17483,0.83444 -1.10736,0.71216 -0.96548,-0.0921 -1.37133,0.005 -1.51853,0.36218 -0.16508,0.40086 -0.24781,0.37373 -0.46405,-0.15217 -0.24543,-0.59686 -0.26468,-0.58916 -0.28566,0.11424 -0.0165,0.552 -0.1582,0.70215 -0.52866,0.56 -0.27839,-0.10683 -0.64303,-0.19424 -0.81031,-0.19424 -0.16728,0 -0.43437,-0.324 -0.59354,-0.72 -0.27819,-0.69209 -0.2902,-0.68588 -0.30969,0.16 -0.0253,1.09879 -0.66029,1.17572 -0.66029,0.08 z m -2.88,0.14111 c 0,-0.18638 0.144,-0.24988 0.32,-0.14111 0.176,0.10877 0.32,0.26127 0.32,0.33889 0,0.0776 -0.144,0.14111 -0.32,0.14111 -0.176,0 -0.32,-0.1525 -0.32,-0.33889 z m 0,-0.94111 c 0,-0.176 0.144,-0.32 0.32,-0.32 0.176,0 0.32,0.144 0.32,0.32 0,0.176 -0.144,0.32 -0.32,0.32 -0.176,0 -0.32,-0.144 -0.32,-0.32 z m 12.21771,-1.76243 c -0.38374,-0.44134 -0.69771,-1.00078 -0.69771,-1.2432 0,-0.59377 1.53535,-1.56765 2.1186,-1.34384 0.27569,0.10579 1.05406,-0.36207 1.90069,-1.14247 0.78859,-0.7269 1.46686,-1.26458 1.50726,-1.19485 1.08061,1.86521 1.17657,2.5803 0.23149,1.72501 -0.68568,-0.62053 -1.33347,-0.40565 -0.6967,0.23111 0.20826,0.20827 0.37866,0.5835 0.37866,0.83385 0,0.37246 -0.0891,0.38127 -0.49,0.0485 -0.40515,-0.33625 -0.56983,-0.30147 -0.95099,0.20082 -0.25354,0.33411 -0.40365,0.7716 -0.33358,0.9722 0.18477,0.52891 -1.79629,0.86222 -2.13394,0.35904 -0.16,-0.23844 -0.18723,-0.0434 -0.0665,0.47624 0.25241,1.08662 0.1216,1.09984 -0.76726,0.0776 z m -20.95043,-0.15757 c 0.11956,-0.45719 0.01,-0.64 -0.38419,-0.64 -0.38687,0 -0.48945,-0.16185 -0.34355,-0.54206 0.18188,-0.47398 0.12565,-0.46753 -0.44773,0.0514 -0.6951,0.62907 -1.35508,0.42596 -0.71047,-0.21864 0.20826,-0.20827 0.37866,-0.59097 0.37866,-0.85045 0,-0.33918 -0.23818,-0.25373 -0.84741,0.304 -0.84737,0.77575 -0.8474,0.77575 -0.67141,0.0613 0.15177,-0.61606 0.094,-0.67058 -0.41915,-0.39593 -0.83734,0.44813 -1.52209,-0.75527 -0.8259,-1.45146 0.2567,-0.2567 0.53359,-0.6493 0.6153,-0.87245 0.0976,-0.26658 0.5738,-0.009 1.38857,0.75096 1.96914,1.8368 3.72517,2.90133 4.02011,2.43703 0.15887,-0.2501 0.25188,-0.26484 0.25499,-0.0404 0.006,0.44329 -1.45873,2.04673 -1.86986,2.04673 -0.16792,0 -0.23001,-0.288 -0.13796,-0.64 z m -2.80109,-6.34684 c -1.00227,-0.81159 -1.13081,-2.99456 -0.49685,-8.437867 0.66107,-5.676157 0.65694,-5.799187 -0.20747,-6.179417 -0.88971,-0.39135 -1.07288,-1.19915 -0.41996,-1.85208 0.44517,-0.44517 0.39915,-0.51468 -0.46667,-0.70485 -2.18856,-0.48068 -1.9998,-2.33551 0.59062,-5.80365 1.67257,-2.2393 2.03119,-2.532 4.70975,-3.84404 4.15233,-2.03394 6.54439,-1.96805 6.54439,0.18026 0,2.0708 -3.31314,6.27518 -6.00094,7.61521 -2.07801,1.036 -1.98592,1.28885 0.17092,0.46932 0.88504,-0.33629 1.78954,-0.49996 2.01,-0.3637 0.31612,0.19537 0.22073,1.69127 -0.45135,7.07769 -0.46871,3.756477 -0.85139,7.212404 -0.85041,7.679844 0.002,0.76891 0.0704,0.8174 0.72178,0.50889 0.68004,-0.32208 0.72,-0.52957 0.72,-3.737857 0,-3.192417 0.0632,-3.525117 1.04979,-5.528027 2.52898,-5.13411 7.75674,-7.23553 10.36663,-4.16711 0.64063,0.75318 0.92081,0.85207 2.02358,0.71422 1.26547,-0.15818 1.28551,-0.1818 1.76533,-2.08 0.78099,-3.08967 0.64215,-2.95611 3.33511,-3.20846 3.46384,-0.32459 3.89303,0.26359 2.86658,3.92846 -0.17735,0.63319 -0.0842,0.72 0.7728,0.72 1.03169,0 1.98018,0.7007 1.98018,1.46286 0,0.89717 -1.23188,1.73714 -2.54766,1.73714 -1.19665,0 -1.28496,0.0672 -1.57638,1.2 -0.16979,0.66 -0.68169,2.62565 -1.13755,4.368117 -0.45586,1.742457 -0.76528,3.231677 -0.68759,3.309357 0.0777,0.0777 0.53116,-0.44797 1.00774,-1.16812 0.97045,-1.466447 2.12147,-1.753037 2.6999,-0.67225 1.00892,1.88519 -3.89361,6.37548 -6.98307,6.39587 -0.756,0.005 -1.33577,-0.26413 -2,-0.92835 -1.24748,-1.24749 -1.24208,-3.00725 0.0246,-8.024624 0.528,-2.09141 0.96,-3.88299 0.96,-3.98128 0,-0.0983 -0.34159,-0.17872 -0.7591,-0.17872 -0.62883,0 -0.7929,0.20593 -0.95606,1.2 -0.43905,2.67501 -2.08906,4.085267 -5.72484,4.893037 -1.55594,0.345687 -1.84,0.517067 -1.84,1.110127 0,1.00413 0.61884,2.64046 1.06236,2.80913 0.6751,0.25672 1.73607,-0.34426 2.66661,-1.5105 1.49533,-1.87407 3.17877,-1.2389 2.36804,0.89348 -0.5368,1.41187 -2.85246,3.65478 -4.37279,4.2354 -1.77235,0.67687 -3.38059,0.29353 -4.7455,-1.13114 -0.90926,-0.94907 -0.91968,-0.95127 -1.74672,-0.36893 -2.73979,1.92913 -5.12378,2.43308 -6.44581,1.36256 z m 4.01381,-0.83878 c 1.85544,-0.90378 2.72,-1.54645 2.72,-2.02187 0,-0.2306 -0.30154,-0.22311 -0.95553,0.0238 -1.67552,0.63244 -1.71665,0.29334 -0.83094,-6.850094 0.44505,-3.58939 0.90307,-6.99417 1.01782,-7.56617 0.11476,-0.572 0.15465,-1.03996 0.0887,-1.0399 -0.40006,3.2e-4 -6.57446,2.3356 -6.824,2.58097 -0.18945,0.1863 0.0818,0.29893 0.72,0.29893 0.60006,0 1.024,0.16386 1.024,0.39579 0,0.21768 -0.30839,3.07861 -0.68532,6.35762 -0.69707,6.063944 -0.66471,7.210844 0.22866,8.104214 0.69964,0.69964 1.63429,0.62393 3.49666,-0.28324 z m 10.04258,-0.50406 c 1.4685,-1.06378 2.60108,-2.67238 2.58421,-3.67033 -0.009,-0.53496 -0.17953,-0.44884 -1.0388,0.52472 -0.56539,0.64059 -1.3654,1.33684 -1.77779,1.54721 -1.7544,0.89496 -3.2502,-0.6299 -3.2502,-3.31335 v -1.433197 l 1.84,-0.37319 c 4.14521,-0.840717 5.36229,-1.925967 5.74041,-5.118597 0.33909,-2.86303 -0.9233,-4.47359 -3.5065,-4.47359 -2.60048,0 -5.36282,2.46305 -6.85873,6.1156 -0.8856,2.16237 -0.80732,7.046284 0.14142,8.823244 0.92256,1.72794 1.83058,2.34116 3.46659,2.34116 0.96264,0 1.68377,-0.26294 2.65939,-0.96968 z m -2.99249,-8.710324 c 0.49193,-2.95572 2.18413,-6.32 3.1789,-6.32 0.56785,0 0.81598,0.74003 0.78667,2.34617 -0.0518,2.8386 -1.76529,5.33383 -3.66275,5.33383 -0.44471,0 -0.49304,-0.21703 -0.30282,-1.36 z m 1.89074,-0.21882 c 1.12222,-1.24003 1.97327,-5.14118 1.12156,-5.14118 -0.41627,0 -1.77972,3.02071 -2.07579,4.5989 -0.24363,1.29866 0.0954,1.49131 0.95423,0.54228 z m 10.64244,8.586244 c 0.99472,-0.36614 3.25004,-2.46891 3.81053,-3.55278 0.86809,-1.67872 0.0888,-1.61452 -1.47826,0.12177 -1.21277,1.34373 -1.62193,1.62194 -1.93703,1.31709 -0.31837,-0.30801 -0.15953,-1.31521 0.7822,-4.959994 1.6293,-6.30593 1.46433,-6.01351 3.39243,-6.01351 1.39353,0 1.60686,-0.085 1.60686,-0.64 0,-0.54518 -0.21333,-0.64 -1.44,-0.64 -1.63343,0 -1.62759,0.0163 -0.94206,-2.62921 0.27386,-1.05687 0.40842,-2.0111 0.29902,-2.1205 -0.38044,-0.38044 -4.14893,-0.0286 -4.49303,0.41954 -0.18484,0.24071 -0.52447,1.38546 -0.75473,2.54391 l -0.41866,2.10626 h -1.40527 c -1.19193,0 -1.40527,0.0972 -1.40527,0.64 0,0.5181 0.21334,0.64 1.12,0.64 0.616,0 1.12,0.12765 1.12,0.28366 0,0.15602 -0.504,2.37432 -1.12,4.92955 -1.19973,4.976644 -1.31263,5.988924 -0.77908,6.985874 0.62207,1.16234 1.92928,1.34613 4.04235,0.56834 z M 155.07158,88.262706 c 0.79122,-0.34297 1.02894,-0.57099 0.70972,-0.68073 -0.7233,-0.24865 -1.92,-1.42069 -1.92,-1.88044 0,-0.22294 -0.12341,-0.48161 -0.27425,-0.57484 -0.3611,-0.22317 -2.06312,2.91529 -1.80632,3.3308 0.29887,0.48359 1.95156,0.38576 3.29085,-0.19479 z m 7.34446,-6.06916 c 1.04847,-1.84119 0.96119,-2.37512 -0.38826,-2.37512 -0.61244,0 -1.699,0.23426 -2.41457,0.52058 l -1.30105,0.52057 1.11175,0.75545 c 0.61146,0.4155 1.20623,1.05317 1.32172,1.41704 0.28961,0.91247 0.82689,0.64276 1.67041,-0.83852 z m 24.89842,29.006174 c -0.11601,-0.18771 -0.45443,-0.32459 -0.75204,-0.30417 -0.48785,0.0335 -0.48599,0.0515 0.0189,0.18346 0.308,0.0805 0.56,0.30379 0.56,0.49622 0,0.19243 0.0864,0.26345 0.19205,0.15782 0.10562,-0.10562 0.0971,-0.34562 -0.0189,-0.53333 z m 2.24407,-3.19341 c -0.24806,-0.40137 -1.13723,-0.47321 -1.13723,-0.0919 0,0.1408 0.1728,0.4288 0.384,0.64 0.44736,0.44736 1.08273,-0.015 0.75323,-0.54812 z m -36.59323,9.82812 c -0.55386,-0.55386 -0.47268,-1.14602 0.20698,-1.50976 0.4066,-0.21761 0.70611,-0.20116 0.96,0.0527 0.52905,0.52905 0.45488,1.4196 -0.13715,1.64678 -0.64446,0.24731 -0.58108,0.25899 -1.02983,-0.18976 z m 28.496,0.17067 c -0.5449,-0.21796 -0.50765,-1.59689 0.0489,-1.81045 0.24689,-0.0948 0.71489,0.0254 1.04,0.26702 0.905,0.67255 -0.013,1.97378 -1.0889,1.54343 z m -31.22666,-1.6 c -0.35734,-0.35734 -0.248,-0.65638 0.61511,-1.68212 0.83074,-0.98728 1.73155,-1.3071 1.73155,-0.61475 0,0.45756 -1.53972,2.5102 -1.88295,2.5102 -0.13771,0 -0.34638,-0.096 -0.46371,-0.21333 z m -2.10836,-1.83658 c -0.22687,-0.27336 -0.30472,-0.77282 -0.18113,-1.1622 0.19472,-0.61353 0.14822,-0.64616 -0.45831,-0.32155 -0.55006,0.29438 -0.71258,0.26342 -0.87783,-0.16721 -0.13918,-0.36271 0.13602,-0.79364 0.87734,-1.3738 1.35718,-1.06216 1.70984,-1.06215 1.83287,3e-5 0.0742,0.64091 0.23962,0.8083 0.68388,0.69212 1.07829,-0.28198 0.96325,0.42724 -0.26364,1.62526 -1.05002,1.02532 -1.26944,1.12153 -1.61318,0.70735 z m -3.33538,-3.97529 c -0.76658,-0.84706 -0.65557,-1.44131 0.41745,-2.23462 1.15795,-0.85611 1.36481,-0.86477 2.06907,-0.0866 0.61371,0.67814 0.56073,2.15436 -0.0726,2.02342 -0.22072,-0.0456 -0.4847,0.13437 -0.58664,0.4 -0.25313,0.65967 -1.18493,0.60753 -1.82726,-0.10223 z m -2.11495,-3.54608 c -0.44768,-0.87754 -0.53993,-1.34185 -0.29649,-1.4923 0.19437,-0.12013 0.468,-0.033 0.60807,0.19365 0.2075,0.33575 0.44123,0.33478 1.26202,-0.005 1.45498,-0.60268 2.05245,0.0708 0.68852,0.77612 -0.54822,0.28349 -0.99677,0.71925 -0.99677,0.96834 0,0.99117 -0.65046,0.76467 -1.26535,-0.44061 z m 46.06535,-1.42097 c 0,-0.0617 0.16196,-0.57685 0.35991,-1.14468 0.30101,-0.8635 0.48197,-1.00179 1.10589,-0.8452 1.59208,0.39959 2.3742,0.82593 2.3742,1.2942 0,0.57662 -0.28901,0.60554 -1.48965,0.14904 -0.7146,-0.27169 -0.96365,-0.23996 -1.25611,0.16 -0.31623,0.43248 -1.09424,0.70737 -1.09424,0.38664 z m -47.14666,-1.06109 c -0.11734,-0.11734 -0.21334,-0.3198 -0.21334,-0.44992 0,-0.32747 2.89487,-1.28534 3.23996,-1.07206 0.59132,0.36546 0.22555,0.73372 -1.21696,1.22523 -1.74935,0.59606 -1.54402,0.56239 -1.80966,0.29675 z m 48.90678,-2.14158 c -0.86461,-1.31957 0.28337,-2.667227 1.92176,-2.25603 1.18887,0.29839 1.60917,1.26223 0.97349,2.2324 -0.68884,1.05131 -2.21374,1.06375 -2.89525,0.0236 z m 2.07988,-0.68509 c 0,-0.26667 -0.28444,-0.48 -0.64,-0.48 -0.63751,0 -0.83236,0.34097 -0.42666,0.74667 0.38973,0.38973 1.06666,0.2205 1.06666,-0.26667 z m -51.63304,0.56 c -0.0859,-0.308 -0.2493,-0.884 -0.36313,-1.28 -0.1519,-0.52845 -0.0735,-0.72 0.29461,-0.72 0.27586,0 0.50156,0.1457 0.50156,0.32378 0,0.19853 0.49518,0.2446 1.28,0.1191 1.02062,-0.1632 1.28,-0.10634 1.28,0.28061 0,0.30126 -0.42472,0.56496 -1.12,0.6954 -0.67042,0.12577 -1.12,0.39697 -1.12,0.67561 0,0.6528 -0.56438,0.58198 -0.75304,-0.0945 z m 51.31304,-2.928057 c -1.05263,-0.14031 -1.41202,-0.32106 -1.336,-0.67194 0.0572,-0.264 0.24321,-0.529997 0.41336,-0.591117 0.18219,-0.0654 0.15159,-0.30121 -0.0744,-0.57356 -0.61983,-0.74685 0.0826,-1.10069 1.73541,-0.87415 1.57097,0.21532 1.95875,0.7808 0.94167,1.3732 -0.31078,0.18102 -0.38199,0.3305 -0.16,0.3359 0.22,0.005 0.4,0.297727 0.4,0.649727 0,0.352 -0.108,0.61837 -0.24,0.59194 -0.132,-0.0264 -0.888,-0.13444 -1.68,-0.24 z m -51.78883,-0.55042 c 0.0785,-0.413787 0.43783,-0.632807 1.15145,-0.701787 1.47949,-0.14301 1.28646,-0.69973 -0.24262,-0.69973 -0.94359,0 -1.28,-0.13055 -1.28,-0.49672 0,-0.39817 0.33333,-0.47754 1.68,-0.4 1.53907,0.0886 1.68807,0.16613 1.77618,0.92411 0.1181,1.015917 -0.36714,1.446367 -1.96763,1.745487 -1.09455,0.20456 -1.21878,0.16327 -1.11738,-0.37136 z m -0.17784,-3.267597 c -0.29264,-0.4735 0.11051,-2.61392 0.49233,-2.61392 0.16194,0 0.37732,0.216 0.47862,0.48 0.11365,0.29617 0.60003,0.48 1.26996,0.48 0.75179,0 1.08576,0.14765 1.08576,0.48 0,0.33875 -0.34274,0.48 -1.16472,0.48 -0.71346,0 -1.31444,0.20475 -1.55115,0.52848 -0.26804,0.36656 -0.45518,0.41725 -0.6108,0.16544 z m 50.84362,-0.0589 c -0.24723,-0.40003 -0.24622,-0.40144 0.64305,-0.89814 0.61707,-0.34465 0.61337,-0.35781 -0.10346,-0.36719 -0.53272,-0.007 -0.71329,-0.16847 -0.637,-0.56973 0.14786,-0.7778 3.46046,-1.02355 3.46046,-0.25672 0,0.28339 -0.27487,0.49672 -0.64,0.49672 -0.352,0 -0.64,0.144 -0.64,0.32 0,0.176 0.29856,0.32 0.66347,0.32 0.45904,0 0.6307,0.17254 0.55712,0.56 -0.0797,0.41998 -0.47843,0.58409 -1.59448,0.65635 -0.85401,0.0553 -1.58231,-0.056 -1.70916,-0.26129 z m -48.95695,-3.18107 c -1.00855,-0.13709 -1.30122,-0.32317 -1.38009,-0.87748 -0.13508,-0.94939 0.50615,-2.10185 0.99615,-1.79037 0.21117,0.13423 0.52794,0.24872 0.70394,0.25442 0.176,0.006 0.30857,0.3319 0.2946,0.7249 -0.0316,0.88792 0.37226,0.93825 0.59812,0.0745 0.23021,-0.88032 0.86728,-0.80771 0.86728,0.0988 0,1.24045 -0.64489,1.71022 -2.08,1.51515 z m 49.03317,-0.37622 c -0.77074,-0.43133 -0.72741,-2.082 0.0658,-2.50651 1.01315,-0.54222 1.89401,-0.38051 2.4364,0.44728 0.39681,0.60562 0.43149,0.92546 0.15612,1.44 -0.6194,1.15736 -1.1396,0.78964 -0.98822,-0.69854 0.0316,-0.31033 -0.15759,-0.56 -0.42427,-0.56 -0.61066,0 -1.07778,0.72041 -0.57565,0.88778 0.42227,0.14076 0.5096,0.91229 0.12982,1.147 -0.13576,0.0839 -0.49576,0.0132 -0.8,-0.15701 z m -1.66495,-4.10188 c -0.26852,-0.51926 -0.48822,-1.03136 -0.48822,-1.13799 0,-0.22406 2.88664,-1.54497 3.0259,-1.38464 0.051,0.0587 0.3406,0.59385 0.64358,1.18921 0.44618,0.87673 0.47072,1.132 0.12915,1.3431 -0.24739,0.1529 -0.52242,0.10227 -0.66528,-0.12246 -0.18589,-0.29241 -0.24471,-0.28841 -0.24845,0.0169 -0.003,0.22 -0.2209,0.4 -0.4849,0.4 -0.264,0 -0.48,-0.216 -0.48,-0.48 0,-0.264 -0.14674,-0.48 -0.32609,-0.48 -0.18805,0 -0.2411,0.33867 -0.12531,0.8 0.28051,1.11766 -0.37794,1.02087 -0.98038,-0.14411 z m -46.18431,-0.73363 c -0.56542,-0.27225 -0.71381,-0.57506 -0.64,-1.30607 0.12505,-1.23836 0.90073,-1.73007 2.07921,-1.31801 1.11332,0.38928 1.43885,1.95111 0.54317,2.60604 -0.67087,0.49056 -0.9949,0.49351 -1.98238,0.018 z m 1.39333,-1.49438 c -0.3114,-0.50385 -1.13724,-0.42727 -1.13724,0.10545 0,0.53805 0.68414,0.85246 1.07612,0.49455 0.15187,-0.13866 0.17937,-0.40866 0.0611,-0.6 z m 43.16607,-1.0149 c -0.22218,-0.35948 0.9622,-1.54965 1.55826,-1.56586 0.14386,-0.004 0.17015,-0.29512 0.0584,-0.64712 -0.34256,-1.07933 0.57293,-0.73558 1.38712,0.52084 0.55397,0.85486 0.65393,1.24611 0.38668,1.51337 -0.26726,0.26726 -0.43381,0.24174 -0.64421,-0.0987 -0.28878,-0.46727 -0.30648,-0.46303 -2.30026,0.5511 -0.11587,0.0589 -0.31658,-0.0642 -0.44602,-0.27364 z m -42.77763,-1.0193 -1.19432,-0.72304 0.6556,-1.07804 c 0.47357,-0.77872 0.75255,-0.9811 1.00476,-0.72888 0.25221,0.25221 0.23543,0.4862 -0.0605,0.84272 -0.27801,0.33498 -0.29421,0.49356 -0.0504,0.49356 0.19755,0 0.35918,-0.156 0.35918,-0.34667 0,-0.19066 0.18,-0.28528 0.4,-0.21025 0.22,0.075 0.35495,0.44703 0.29989,0.82667 -0.0551,0.37964 0.0529,0.69025 0.24,0.69025 0.18706,0 0.34011,0.216 0.34011,0.48 0,0.67089 -0.60212,0.59652 -1.99432,-0.24632 z m 39.00199,-3.72594 c -1.0505,-1.03133 -1.03397,-2.0574 0.0356,-2.21 0.3942,-0.0562 0.71673,-0.23624 0.71673,-0.4 0,-0.53821 1.1689,-0.3109 1.76,0.34226 0.54019,0.5969 0.54348,0.67946 0.0489,1.22597 -0.29166,0.32228 -0.43746,0.6788 -0.324,0.79227 0.26759,0.26758 -0.49449,1.18727 -0.96408,1.16347 -0.19845,-0.0101 -0.77137,-0.42134 -1.27315,-0.91397 z m -35.97593,-0.43373 -1.01381,-1.04598 0.73807,-0.92563 c 0.45917,-0.57586 0.88689,-0.83367 1.13189,-0.68225 0.29669,0.18337 0.25057,0.40456 -0.18704,0.89695 -0.57036,0.64176 -0.56811,0.64574 0.1246,0.22034 0.78854,-0.48424 1.38147,-0.17635 0.79322,0.41189 -0.63144,0.63144 -0.42315,1.03012 0.22957,0.43942 0.84752,-0.767 1.18021,-0.0864 0.44887,0.91832 -0.75966,1.04361 -1.05769,1.01295 -2.26537,-0.23306 z m 2.52897,-2.3658 c -1.03289,-1.25308 -1.03497,-1.70821 -0.008,-1.70821 0.41439,0 0.60246,-0.18309 0.54111,-0.5268 -0.17457,-0.97808 0.60733,-0.78294 1.4877,0.37129 0.97062,1.27254 0.90044,2.24628 -0.13814,1.91665 -0.47671,-0.1513 -0.59378,-0.0837 -0.45976,0.26557 0.38356,0.99953 -0.49961,0.80188 -1.42312,-0.3185 z m 28.49963,-1.40067 c -0.85976,-0.801 -0.90173,-1.94609 -0.098,-2.67348 0.765,-0.69231 2.13012,-0.39667 2.78526,0.60319 0.42041,0.64163 0.40987,0.82583 -0.0984,1.71868 -0.66783,1.1732 -1.57481,1.29638 -2.58891,0.35161 z m 1.10411,-0.86754 c -0.0245,-0.308 0.13555,-0.524 0.35555,-0.48 0.22,0.044 0.4,-0.064 0.4,-0.24 0,-0.42398 -1.18505,-0.41251 -1.44866,0.014 -0.11354,0.18371 -0.0324,0.54371 0.1803,0.8 0.49751,0.59946 0.56684,0.58675 0.51281,-0.094 z m -26.57884,0.2683 c -0.84353,-0.93209 -0.5515,-2.34452 0.56551,-2.73513 0.76161,-0.26632 0.98707,-0.21477 1.3739,0.31411 0.80717,1.10358 0.90991,2.12802 0.26101,2.60251 -0.81742,0.59771 -1.54993,0.53729 -2.20042,-0.18149 z m 1.1834,-0.70729 c -0.19745,-0.19745 -0.27705,-0.59345 -0.1769,-0.88 0.1433,-0.41002 0.0948,-0.44038 -0.2275,-0.14252 -0.47034,0.43463 -0.21719,1.38151 0.36935,1.38151 0.29123,0 0.30038,-0.0937 0.0351,-0.35899 z m 1.86099,-1.47908 c -0.56146,-1.15565 -0.62238,-1.51359 -0.29231,-1.71758 0.51903,-0.32078 0.67739,-0.13761 1.32007,1.52683 0.41152,1.06577 0.43101,1.36303 0.0978,1.49091 -0.25623,0.0983 -0.6889,-0.40148 -1.12551,-1.30016 z m 19.57,1.30614 c -0.22,-0.0888 -0.4,-0.46492 -0.4,-0.8359 0,-0.61169 -0.0372,-0.62466 -0.4,-0.1393 -0.24109,0.32257 -0.55937,0.43443 -0.80115,0.28156 -0.61572,-0.38929 0.44883,-3.322598 1.15688,-3.18774 0.28835,0.0549 0.56968,0.41772 0.62517,0.80624 0.0867,0.60676 0.18617,0.65314 0.70545,0.32884 0.93323,-0.58281 1.09908,-0.0749 0.49339,1.5111 -0.55511,1.45352 -0.64321,1.5324 -1.37974,1.2352 z m -17.79576,-2.20354 c -0.43391,-1.27345 -0.43716,-1.47803 -0.026,-1.6358 0.25846,-0.09918 0.68409,-0.003 0.94585,0.21465 0.39677,0.32929 0.47592,0.27759 0.47592,-0.310863 0,-1.164366 0.75231,-0.560044 1.19159,0.957193 0.45223,1.56195 0.13401,2.29207 -0.69802,1.60155 -0.41026,-0.34049 -0.49357,-0.32199 -0.49357,0.10956 0,1.07848 -0.91941,0.46173 -1.39576,-0.93629 z m 13.87576,0.63717 c 0,-0.99219 0.80523,-3.021699 1.19889,-3.021699 0.38717,0 0.44076,0.263577 0.27032,1.329479 -0.11693,0.73121 -0.28783,1.45121 -0.37979,1.6 -0.18471,0.29887 -1.08942,0.37546 -1.08942,0.0922 z m -10.03206,-0.38414 c -0.0824,-0.13334 -0.25389,-0.79711 -0.38107,-1.47504 -0.25891,-1.380108 0.079,-1.789335 1.48444,-1.797619 0.70542,-0.0042 0.83543,0.140463 0.85859,0.9551 0.0175,0.614149 -0.13111,0.959999 -0.41241,0.959999 -0.24185,0 -0.54273,0.16668 -0.66864,0.37041 -0.15683,0.25376 -0.0117,0.31361 0.4608,0.19004 0.80925,-0.21163 1.29206,0.34461 0.65135,0.75043 -0.54505,0.34523 -1.79052,0.3744 -1.99306,0.0467 z m 8.00788,-0.47756 c -0.42164,-0.60445 -0.50494,-0.63012 -0.51903,-0.16 -0.009,0.308 -0.23279,0.56 -0.49679,0.56 -0.51716,0 -0.61351,-0.85244 -0.28307,-2.504614 0.18048,-0.902435 0.28064,-0.969245 1.2,-0.800456 1.30342,0.239302 1.88816,0.948161 1.45295,1.76136 -0.17893,0.33434 -0.23565,0.89045 -0.12604,1.2358 0.28094,0.88517 -0.59198,0.81971 -1.22802,-0.0921 z m -4.80972,-0.30317 c -0.10855,-0.40526 -0.19932,-1.204829 -0.20173,-1.776829 -0.004,-1.000728 0.044,-1.04 1.27563,-1.04 1.41671,0 1.84521,0.806624 0.56,1.054166 l -0.72,0.138678 0.72,0.04358 c 0.89028,0.05388 0.96398,0.683577 0.08,0.683577 -0.83915,0 -0.82887,0.5659 0.0127,0.69774 1.10331,0.17286 0.85405,0.73668 -0.37095,0.83909 -0.97923,0.0819 -1.18879,-0.0171 -1.35563,-0.64 z m -42.25699,20.89533 c -1.17463,-1.29795 -0.5371,-3.67459 1.08104,-4.03 1.33847,-0.29397 2.17851,0.0517 2.73336,1.12463 0.63309,1.22425 0.60211,1.66721 -0.18673,2.67006 -0.82954,1.05458 -2.7722,1.1806 -3.62767,0.23531 z m 84.28738,-0.43216 c -0.83157,-1.36388 -0.80555,-1.64069 0.26706,-2.84115 0.80623,-0.90233 1.03019,-0.9875 2.07921,-0.7907 0.85433,0.16027 1.30706,0.47466 1.65645,1.15031 0.63755,1.2329 0.6075,1.67415 -0.18243,2.67839 -0.51611,0.65612 -0.94305,0.84315 -1.92471,0.84315 -1.0798,0 -1.3528,-0.14978 -1.89558,-1.04 z m -77.93764,-12.41049 c 2.22491,-2.3786 2.85074,-4.01903 2.67121,-7.00177 -0.11324,-1.88146 -0.36591,-2.860037 -1.12291,-4.348927 -1.03676,-2.039135 -5.10177,-6.917714 -6.91904,-8.303813 -1.24173,-0.947116 -2.60576,-3.728688 -2.93447,-5.984074 -0.50401,-3.458115 1.96427,-7.51606 5.70579,-9.380537 3.94165,-1.964208 7.824,-0.528363 11.36839,4.204476 3.82761,5.111024 3.43162,10.86618 -0.89864,13.060487 -1.89581,0.960678 -3.31229,1.015473 -5.18265,0.200483 -3.45016,-1.503374 -6.01859,-4.589344 -6.02233,-7.235834 -0.003,-2.175067 1.87214,-4.319999 3.77676,-4.319999 2.10164,0 4.2864,4.227657 2.64008,5.108741 -1.34188,0.718156 -1.62104,0.451314 -1.62104,-1.549559 0,-1.941975 -0.45501,-2.772876 -1.3338,-2.435652 -0.70563,0.270774 -2.18626,2.750507 -2.18567,3.660523 6.2e-4,0.95862 2.01517,3.982655 3.28237,4.927163 0.82848,0.61751 1.0246,0.633762 3.18251,0.263722 3.98436,-0.683243 5.59229,-2.594542 5.2953,-6.294388 -0.30767,-3.832903 -2.26696,-6.734414 -5.1165,-7.577006 -1.50501,-0.445023 -5.06334,-0.553146 -6.34287,-0.192735 -0.45027,0.126829 -1.69446,1.062781 -2.76487,2.079894 -1.69143,1.607212 -1.97397,2.046003 -2.15834,3.351948 -0.45014,3.188561 1.52103,6.900819 6.41302,12.077486 4.32394,4.575556 5.08885,5.904796 5.08885,8.843231 0,1.92321 -0.12806,2.45223 -0.85208,3.52 -1.14754,1.69235 -2.77102,3.41905 -3.99731,4.25145 -1.6021,1.0875 -1.59359,0.80856 0.0282,-0.92531 z m 74.10472,-0.19756 c -2.74253,-2.5391 -3.68301,-4.24673 -3.67459,-6.67195 0.01,-2.738201 0.99815,-4.480605 4.82673,-8.506777 5.17584,-5.442955 7.29867,-9.450858 6.69895,-12.647625 -0.23875,-1.272637 -2.57349,-4.020339 -4.07656,-4.797607 -2.69966,-1.396051 -8.27751,-0.533465 -10.04091,1.552777 -1.53366,1.814446 -2.17318,3.670285 -2.19624,6.373391 -0.017,1.992529 0.10296,2.624548 0.63779,3.36 1.48416,2.040907 5.9098,3.26407 7.79046,2.153135 1.23564,-0.729908 3.2308,-3.91891 3.2308,-5.163996 0,-0.950219 -1.37412,-3.094241 -2.20056,-3.43349 -0.85954,-0.352841 -1.31944,0.493926 -1.31944,2.429376 0,2.000873 -0.27915,2.267715 -1.62103,1.549559 -1.24324,-0.665361 -0.37649,-3.45418 1.44434,-4.647233 1.65761,-1.086103 4.10963,0.239398 4.91618,2.657559 0.85394,2.560251 -1.77742,6.538284 -5.45853,8.252082 -2.0046,0.933276 -3.46087,0.983753 -5.22793,0.181211 -5.19746,-2.360524 -5.23729,-9.454614 -0.0826,-14.713254 2.49227,-2.542528 3.74518,-3.266755 6.00618,-3.471776 2.57659,-0.233636 4.47251,0.504594 6.69564,2.607142 2.46535,2.331621 3.07895,3.648874 3.06769,6.585528 -0.0122,3.194289 -0.9129,4.951768 -4.21531,8.225517 -4.7947,4.753088 -6.80464,8.292843 -6.80464,11.983811 0,2.40632 0.72534,4.06453 2.7752,6.34448 1.94015,2.15791 1.24849,2.03875 -1.17163,-0.20186 z M 138.8213,45.898468 c 0,-0.176 0.12782,-0.32 0.28404,-0.32 0.15621,0 0.7484,-1.152 1.31596,-2.56 0.56757,-1.408 1.14357,-2.56 1.28,-2.56 0.13644,0 0.71244,1.152 1.28,2.56 1.04788,2.599536 1.6,3.206874 1.6,1.76 0,-0.44 0.144,-0.8 0.32,-0.8 0.176,0 0.32,0.210933 0.32,0.468741 0,0.606435 1.11618,1.199451 2.01651,1.071352 1.17061,-0.166555 0.79277,-1.008192 -0.78995,-1.759622 -1.60766,-0.763264 -2.10722,-1.612855 -1.55505,-2.644606 0.38281,-0.715278 1.22915,-0.980959 2.80776,-0.881405 0.9546,0.0602 1.03933,0.153786 1.04,1.148695 l 7.3e-4,1.083154 -0.67692,-0.860572 c -0.43359,-0.551223 -0.92247,-0.825553 -1.36,-0.763155 -1.15864,0.165241 -0.758,1.012332 0.83692,1.769552 1.28984,0.612376 1.52,0.859974 1.52,1.635161 0,1.56211 -0.75145,1.904914 -4.24,1.934242 -1.716,0.01443 -3.12,-0.103019 -3.12,-0.260988 0,-0.157969 0.1695,-0.343714 0.37666,-0.412768 0.62087,-0.206955 -0.0361,-0.887781 -0.85666,-0.887781 -0.82056,0 -1.47752,0.680826 -0.85665,0.887781 0.74044,0.246815 0.35925,0.712219 -0.58335,0.712219 -0.528,0 -0.96,-0.144 -0.96,-0.32 z m 2.64565,-2.587051 c -0.13262,-0.507155 -0.23933,-0.564685 -0.44514,-0.24 -0.39419,0.621862 -0.34089,0.907051 0.16954,0.907051 0.29858,0 0.39133,-0.224497 0.2756,-0.667051 z m 7.91435,1.718332 c 0,-1.162412 0.48268,-1.411079 0.79977,-0.412025 0.22008,0.693425 1.45213,1.147445 2.26613,0.835086 0.80934,-0.310572 0.3604,-0.939716 -1.20642,-1.690666 -0.79906,-0.382978 -1.53448,-0.909089 -1.63427,-1.169135 -0.54269,-1.414243 0.87161,-2.518226 2.97479,-2.322085 1.16729,0.10886 1.53763,0.682207 1.11502,1.726236 -0.19033,0.470177 -0.25514,0.447954 -0.49321,-0.169119 -0.30735,-0.796611 -1.77083,-1.308545 -2.28135,-0.798026 -0.49181,0.491809 -0.0829,0.935513 1.5128,1.641348 1.36217,0.602552 1.61582,1.000696 1.43546,2.253179 -0.12304,0.854386 -1.09816,1.276546 -2.80872,1.215976 -1.67367,-0.05926 -1.68,-0.06344 -1.68,-1.110769 z m 6.56,0.802217 c -1.04648,-0.600157 -1.41905,-1.297897 -1.42982,-2.677718 -0.023,-2.944837 3.93927,-4.049928 5.57422,-1.554678 1.69538,2.587473 -1.4362,5.785546 -4.1444,4.232396 z m 2.4113,-0.747108 c 0.51256,-0.617604 0.49786,-3.212897 -0.0218,-3.838993 -1.01135,-1.218604 -2.22954,-0.05236 -2.22954,2.134472 0,1.917475 1.27402,2.88207 2.2513,1.704521 z m 3.61382,0.367572 c -1.24817,-1.07363 -1.25636,-3.02817 -0.0179,-4.266648 0.76093,-0.760927 1.10833,-0.867698 2.71273,-0.833742 3.85075,0.0815 5.02703,0.162205 4.64004,0.318358 -0.26953,0.10876 -0.4,0.935485 -0.4,2.534736 0,2.129519 0.0633,2.373334 0.61626,2.373334 0.46986,0 0.86539,-0.609326 1.66499,-2.565003 0.57681,-1.410751 1.18202,-2.520574 1.34493,-2.466272 0.1629,0.0543 0.721,1.172552 1.24021,2.485002 0.51921,1.31245 1.07668,2.434273 1.23882,2.492939 0.79976,0.289378 0.13253,0.693334 -1.14521,0.693334 -1.32769,0 -1.94985,-0.416717 -1.06334,-0.712219 0.62087,-0.206955 -0.0361,-0.887781 -0.85666,-0.887781 -0.82056,0 -1.47752,0.680826 -0.85665,0.887781 0.20716,0.06905 0.37665,0.257552 0.37665,0.418885 0,0.161334 -1.08,0.293334 -2.4,0.293334 -1.38666,0 -2.4,-0.135111 -2.4,-0.32 0,-0.176 0.144,-0.32 0.32,-0.32 0.18489,0 0.32,-1.013334 0.32,-2.4 0,-1.92 -0.096,-2.4 -0.48,-2.4 -0.30573,0 -0.48,0.307414 -0.48,0.846727 v 0.846727 l -0.78472,-0.846727 c -0.92355,-0.996529 -1.48073,-1.062595 -2.20568,-0.26153 -0.59429,0.656679 -0.70426,2.650512 -0.19834,3.59584 0.40642,0.759395 1.49699,0.80119 2.28551,0.08759 0.32294,-0.292254 0.69427,-0.423859 0.8252,-0.292454 0.13092,0.131404 -0.10192,0.514521 -0.51742,0.851371 -1.0506,0.851742 -2.68803,0.785203 -3.77943,-0.153583 z m 10.44998,-1.713962 c -0.003,-0.132 -0.12671,-0.432173 -0.2756,-0.667051 -0.20582,-0.324685 -0.31252,-0.267155 -0.44514,0.24 -0.11573,0.442554 -0.023,0.667051 0.2756,0.667051 0.24752,0 0.44784,-0.108 0.44514,-0.24 z m 3.5249,2.194236 c 0,-0.15717 0.216,-0.36865 0.48,-0.469957 0.35826,-0.137475 0.48,-0.709519 0.48,-2.255351 0,-2.337038 -0.42931,-2.909206 -1.31679,-1.754951 l -0.58898,0.766023 -0.007,-0.88 -0.007,-0.88 4.24,0.02526 c 2.332,0.0139 4.06,0.09789 3.84,0.186667 -0.49184,0.198461 -0.5686,4.90807 -0.08,4.90807 0.176,0 0.32,0.144 0.32,0.32 0,0.176 -0.648,0.32 -1.44,0.32 -0.792,0 -1.44,-0.144 -1.44,-0.32 0,-0.176 0.144,-0.32 0.32,-0.32 0.18489,0 0.32,-1.013334 0.32,-2.4 0,-1.92 -0.096,-2.4 -0.48,-2.4 -0.28268,0 -0.48,0.292356 -0.48,0.711202 v 0.711202 l -0.49814,-0.711202 c -0.84328,-1.203944 -1.10186,-0.807622 -1.10186,1.688798 0,1.386666 0.13511,2.4 0.32,2.4 0.176,0 0.32,0.144 0.32,0.32 0,0.176 -0.72,0.32 -1.6,0.32 -0.88,0 -1.6,-0.128594 -1.6,-0.285764 z m 9.12,-0.100738 c -1.04648,-0.600157 -1.41905,-1.297897 -1.42982,-2.677718 -0.0119,-1.519095 0.87765,-2.569346 2.44089,-2.881993 1.13285,-0.22657 2.79305,0.502272 3.29945,1.448488 1.40576,2.626687 -1.71277,5.601032 -4.31052,4.111223 z m 2.41415,-0.750549 c 0.58254,-0.701915 0.52629,-3.259656 -0.0851,-3.871076 -0.64655,-0.646548 -1.72139,-0.308985 -1.9701,0.618725 -0.6897,2.572672 0.74071,4.836254 2.05523,3.252351 z m 2.54585,0.817051 c 0,-0.176 0.144,-0.32 0.32,-0.32 0.46202,0 0.40435,-4.267653 -0.064,-4.736 -0.29866,-0.298667 -0.13866,-0.378765 0.72,-0.36044 0.91436,0.01951 1.33762,0.296396 2.464,1.611839 l 1.36,1.588279 v -1.428375 c 0,-1.091275 -0.13216,-1.462913 -0.56,-1.574719 -0.308,-0.08049 0.016,-0.151679 0.72,-0.158201 0.704,-0.0065 1.1,0.06077 0.88,0.149547 -0.27553,0.111179 -0.4,0.999485 -0.4,2.854736 0,1.481334 -0.11204,2.693334 -0.24899,2.693334 -0.13695,0 -1.03695,-0.929254 -2,-2.065008 l -1.75101,-2.065009 -0.0993,1.658584 c -0.0581,0.971262 0.0413,1.705448 0.24,1.771674 0.70942,0.236474 0.29846,0.699759 -0.62073,0.699759 -0.528,0 -0.96,-0.144 -0.96,-0.32 z m -40.64,-8.920818 c 0,-0.15445 0.19253,-0.440598 0.42783,-0.635885 0.23531,-0.195287 0.82371,-1.364082 1.30755,-2.597323 0.48385,-1.23324 0.98173,-2.305298 1.1064,-2.382351 0.12467,-0.07705 0.71596,1.080499 1.31396,2.572337 0.91371,2.27943 1.1924,2.697395 1.74577,2.618236 0.57926,-0.08286 0.66989,-0.35462 0.75321,-2.25859 0.0752,-1.717795 -0.007,-2.203566 -0.4,-2.354237 -0.99975,-0.383641 -0.4514,-0.761369 1.10528,-0.761369 1.54724,0 2.10632,0.377237 1.12,0.75572 -0.35825,0.137475 -0.48,0.709519 -0.48,2.255351 0,1.139137 0.15219,2.165213 0.33819,2.280169 0.58558,0.361909 1.78298,-0.12776 2.16236,-0.884285 0.33623,-0.670477 0.35892,-0.639941 0.292,0.393045 l -0.0726,1.12 -3.52,0.07179 c -3.73708,0.07621 -4.79058,-0.06318 -4.03003,-0.533223 0.61022,-0.377138 0.137,-0.978563 -0.76997,-0.978563 -0.82056,0 -1.47752,0.680826 -0.85665,0.887781 0.74044,0.246815 0.35925,0.712219 -0.58335,0.712219 -0.528,0 -0.96,-0.126368 -0.96,-0.280818 z m 2.8751,-2.199182 c -0.006,-0.306359 -0.62363,-1.272476 -0.6302,-0.986172 -0.003,0.117605 -0.0923,0.441605 -0.19913,0.72 -0.12746,0.332155 -0.0174,0.506172 0.32,0.506172 0.28283,0 0.51203,-0.108 0.50933,-0.24 z m 9.9249,2.257926 c -0.9359,-0.334484 -1.28,-1.194476 -1.28,-3.199088 0,-1.132559 -0.14048,-2.018838 -0.32,-2.018838 -0.176,0 -0.32,-0.144 -0.32,-0.32 0,-0.176 0.56751,-0.32 1.26112,-0.32 0.69361,0 1.35011,0.144 1.45888,0.32 0.10878,0.176 0.0453,0.32 -0.14111,0.32 -0.20574,0 -0.33889,0.866639 -0.33889,2.205763 0,1.716171 0.11235,2.248877 0.50618,2.4 0.75808,0.290907 0.99947,0.242874 1.55097,-0.30862 0.56961,-0.569617 0.72823,-4.297143 0.18285,-4.297143 -0.176,0 -0.32,-0.144 -0.32,-0.32 0,-0.180788 0.91254,-0.32 2.09761,-0.32 h 2.09761 l 0.81868,1.84 0.81867,1.84 0.84372,-1.76 0.84371,-1.76 2.06538,-0.09697 2.06538,-0.09697 1.52077,1.696966 1.52076,1.696967 0.0139,-1.36 c 0.008,-0.748 -0.13015,-1.36 -0.30615,-1.36 -0.176,0 -0.32,-0.130613 -0.32,-0.290252 0,-0.159638 1.08,-0.301354 2.4,-0.314923 1.37759,-0.01416 2.4,0.109486 2.4,0.290251 0,0.173208 -0.144,0.314924 -0.32,0.314924 -0.18489,0 -0.32,1.013333 -0.32,2.4 0,1.386667 0.13511,2.4 0.32,2.4 0.176,0 0.32,0.144 0.32,0.32 0,0.176 -0.648,0.32 -1.44,0.32 -0.792,0 -1.44,-0.144 -1.44,-0.32 0,-0.176 0.144,-0.32 0.32,-0.32 0.18489,0 0.32,-1.013333 0.32,-2.4 0,-2.186667 -0.0569,-2.4 -0.64,-2.4 -0.59008,0 -0.64118,0.218406 -0.65521,2.8 l -0.0152,2.8 -2.06478,-2.225179 -2.06479,-2.225178 v 1.825178 c 0,1.003849 0.144,1.825179 0.32,1.825179 0.176,0 0.32,0.133222 0.32,0.29605 0,0.373926 -4.71659,0.417789 -4.94637,0.046 -0.0935,-0.151244 0.0452,-0.357557 0.30821,-0.458476 0.35238,-0.135221 0.47144,-0.670147 0.4526,-2.033531 l -0.0256,-1.850043 -1.01443,2.146657 c -0.55794,1.180661 -1.12362,2.116267 -1.25707,2.079124 -0.13344,-0.03714 -0.6624,-0.931139 -1.17546,-1.986657 l -0.93284,-1.919124 -0.0245,1.84 c -0.0137,1.02969 0.11639,1.84 0.29546,1.84 0.176,0 0.32,0.144 0.32,0.32 0,0.176 -0.3515,0.32 -0.78111,0.32 -0.42961,0 -0.87011,-0.144 -0.97889,-0.32 -0.10877,-0.176 -0.0453,-0.32 0.14112,-0.32 0.20839,0 0.33888,-0.924169 0.33888,-2.4 0,-2.186667 -0.0569,-2.4 -0.64,-2.4 -0.56942,0 -0.64,0.213333 -0.64,1.934545 0,1.627296 -0.12474,2.059294 -0.78545,2.72 -0.74756,0.747561 -1.68107,0.939885 -2.73455,0.563381 z m 12.73402,-2.734533 c -0.0774,-1.907284 -0.19296,-2.335487 -0.65402,-2.423463 -0.49344,-0.09416 -0.56,0.181171 -0.56,2.316606 0,2.227446 0.0529,2.423464 0.65402,2.423464 0.60712,0 0.64728,-0.166113 0.56,-2.316607 z"
       id="path1" />
  </g>
</svg>
